<svg width="1440" height="900" viewBox="0 0 1440 900" fill="none" xmlns="http://www.w3.org/2000/svg">
<rect width="1440" height="900" fill="#0F172A"/>
<!-- Sidebar -->
<rect width="260" height="900" fill="#1E293B"/>
<rect x="20" y="20" width="220" height="48" rx="8" fill="#334155"/>
<text x="40" y="50" fill="#94A3B8" font-family="sans-serif" font-size="14">Search library...</text>
<!-- Sidebar Items -->
<rect x="20" y="100" width="220" height="40" rx="6" fill="#6366F1" fill-opacity="0.2"/>
<text x="50" y="125" fill="#818CF8" font-family="sans-serif" font-weight="bold" font-size="14">All Tracks</text>
<text x="50" y="165" fill="#94A3B8" font-family="sans-serif" font-size="14">Playlists</text>
<text x="50" y="205" fill="#94A3B8" font-family="sans-serif" font-size="14">History</text>
<!-- Main Content -->
<rect x="260" width="1180" height="64" fill="#1E293B" fill-opacity="0.5"/>
<text x="290" y="40" fill="white" font-family="sans-serif" font-size="20" font-weight="bold">Library</text>
<!-- Grid/Table Header -->
<rect x="280" y="80" width="1140" height="40" rx="4" fill="#334155"/>
<text x="300" y="105" fill="#94A3B8" font-family="sans-serif" font-size="12">TITLE</text>
<text x="600" y="105" fill="#94A3B8" font-family="sans-serif" font-size="12">ARTIST</text>
<text x="800" y="105" fill="#94A3B8" font-family="sans-serif" font-size="12">BPM</text>
<text x="900" y="105" fill="#94A3B8" font-family="sans-serif" font-size="12">KEY</text>
<!-- Rows -->
<rect x="280" y="130" width="1140" height="56" rx="4" fill="#1E293B" stroke="#6366F1" stroke-width="1"/>
<text x="300" y="163" fill="white" font-family="sans-serif" font-size="14">Midnight City</text>
<text x="600" y="163" fill="#CBD5E1" font-family="sans-serif" font-size="14">M83</text>
<text x="800" y="163" fill="#6366F1" font-family="sans-serif" font-size="14">105</text>
<text x="900" y="163" fill="#C084FC" font-family="sans-serif" font-size="14">6A</text>
<!-- Player Dock -->
<rect y="800" width="1440" height="100" fill="#020617" stroke="#334155" stroke-width="1"/>
<rect x="400" y="830" width="640" height="40" rx="4" fill="#1E293B"/>
<path d="M400 850 Q 450 820 500 850 T 600 850 T 700 850" stroke="#6366F1" stroke-width="2" fill="none"/>
</svg>